<svg version="1.1" id="Layer_1" xmlns="http://www.w3.org/2000/svg" xmlns:xlink="http://www.w3.org/1999/xlink" x="0px" y="0px"
	 width="100%" viewBox="0 0 192 192" enable-background="new 0 0 192 192" xml:space="preserve">
<path fill="#FDFDFD" opacity="1.000000" stroke="none" 
	d="
M106.000000,193.000000 
	C70.689354,193.000000 35.878712,193.000000 1.034034,193.000000 
	C1.034034,129.064392 1.034034,65.128761 1.034034,1.096564 
	C64.893806,1.096564 128.787811,1.096564 192.840912,1.096564 
	C192.840912,64.999687 192.840912,128.999802 192.840912,193.000000 
	C164.129044,193.000000 135.314529,193.000000 106.000000,193.000000 
M101.001900,163.000931 
	C101.001900,163.000931 100.987808,163.023361 101.118576,163.724518 
	C102.503349,163.856735 104.052078,164.412445 105.211823,163.963440 
	C105.915344,163.691071 106.333565,161.864639 106.333290,160.736496 
	C106.332230,156.416092 106.221992,152.086929 105.884232,147.782089 
	C105.808220,146.813278 104.649704,145.929367 104.000267,145.000000 
	C104.000267,145.000000 103.993034,145.010330 104.011391,144.241608 
	C104.520874,143.063751 105.326454,141.918198 105.459518,140.699234 
	C105.602776,139.386963 105.438736,137.804367 104.772682,136.736404 
	C104.418442,136.168427 102.377785,135.968201 101.710678,136.449936 
	C100.848412,137.072586 100.182838,138.540970 100.178497,139.648117 
	C100.171425,141.449997 100.768890,143.254257 101.043411,145.977005 
	C100.985924,150.309082 100.928436,154.641174 100.177910,158.975693 
	C98.750023,157.639465 97.322128,156.303238 95.874458,154.233673 
	C95.884468,153.500229 95.894485,152.766769 96.458534,151.674179 
	C97.851883,149.741348 98.770081,147.907990 95.216042,146.307098 
	C94.144615,146.204529 93.073181,146.101959 91.268105,146.146851 
	C89.320763,148.367767 88.924942,150.398010 92.036942,152.667007 
	C92.019432,153.110077 92.001915,153.553146 91.301476,154.103867 
	C89.386276,155.291061 87.471077,156.478271 85.555878,157.665482 
	C85.033447,155.298599 84.576973,152.914520 83.965408,150.570908 
	C83.557823,149.008987 82.929115,147.504776 81.895996,145.447617 
	C80.956390,145.311081 80.016785,145.174545 78.203506,145.014481 
	C76.734344,145.044724 75.265190,145.074982 73.093391,145.040298 
	C72.388878,145.011780 71.684357,144.983261 70.472778,144.410385 
	C69.217644,144.333664 67.962509,144.256927 66.129356,144.198807 
	C65.745644,144.163528 65.361938,144.128250 64.920830,143.474106 
	C64.513466,143.137894 64.106102,142.801697 63.698723,142.465500 
	C63.471375,143.002213 63.244026,143.538925 62.318989,144.189362 
	C56.226967,146.764862 53.124527,151.268692 54.533253,156.236526 
	C55.134830,158.357986 56.333633,161.228775 58.022209,161.932373 
	C61.555519,163.404648 65.593956,163.664658 70.128075,164.561646 
	C70.128075,165.818130 70.128075,167.931610 69.272293,170.169495 
	C60.650707,171.493881 52.029118,172.818268 43.407528,174.142670 
	C43.462173,174.729462 43.516819,175.316254 43.571461,175.903061 
	C47.696808,175.593506 51.822155,175.283951 56.359531,174.881287 
	C56.627159,174.771820 56.840977,174.596680 57.905632,174.219406 
	C65.268044,173.807312 72.630463,173.395233 80.350403,173.465408 
	C81.264366,173.169571 82.178329,172.873718 83.988281,172.356674 
	C94.642448,172.274261 105.296616,172.191864 115.866516,172.260773 
	C115.866516,172.260773 115.894272,172.431763 116.165466,173.033905 
	C117.782074,173.001175 119.398682,172.968460 121.934517,172.930618 
	C125.872047,173.004120 129.809570,173.077621 134.093567,173.847168 
	C136.402725,174.187851 138.711868,174.528549 141.766449,174.948944 
	C142.512253,174.904007 143.258072,174.859070 144.495819,174.832199 
	C144.495819,174.832199 144.962952,174.676880 145.756012,174.801605 
	C146.824829,174.809097 147.893646,174.816605 149.715500,175.042023 
	C151.645554,175.333084 153.575607,175.624130 155.505661,175.915192 
	C155.625900,175.282806 155.746140,174.650421 155.866364,174.018036 
	C153.577576,173.678619 151.288788,173.339188 148.197327,172.840851 
	C139.468399,171.835266 130.739471,170.829697 121.815598,169.552505 
	C121.488892,169.354736 121.215706,169.427200 120.169868,169.833115 
	C118.790451,169.853287 117.411041,169.873474 115.193291,169.813553 
	C104.520538,169.794434 93.847786,169.775299 82.590675,169.343063 
	C81.401527,169.256561 80.212379,169.170044 78.696190,168.411011 
	C78.062309,166.221405 77.428429,164.031799 76.794548,161.842178 
	C77.237282,161.746567 77.680023,161.650955 78.122765,161.555344 
	C81.640083,166.845444 88.373138,167.623062 93.733704,163.200073 
	C94.233772,163.158005 94.733833,163.115936 96.039207,163.025635 
	C97.685715,163.021118 99.332230,163.016602 101.001900,163.000931 
M61.794777,95.867653 
	C63.815414,100.312309 65.836052,104.756966 68.135406,109.743591 
	C68.916512,110.585793 69.697617,111.428001 70.735519,112.854713 
	C71.491074,113.569473 72.246628,114.284225 73.272926,115.573921 
	C74.159439,116.101608 75.045952,116.629295 76.299957,117.721466 
	C84.884277,124.497124 94.787949,125.204033 104.923157,123.234894 
	C108.562408,122.527832 111.845627,119.988297 115.892372,118.158012 
	C116.607079,117.775429 117.321793,117.392838 118.469566,116.797974 
	C118.745148,116.603920 118.924179,116.343483 119.311638,115.518211 
	C119.864685,115.340645 120.417732,115.163078 121.430016,114.761749 
	C121.606491,114.478592 121.782959,114.195435 122.289612,113.346985 
	C123.853828,111.563507 125.418045,109.780029 127.700729,107.919952 
	C131.834824,104.409042 134.721970,93.653000 132.952179,88.191910 
	C132.678894,86.436913 132.405609,84.681908 132.113678,82.294777 
	C132.101349,81.874565 132.089005,81.454346 131.950043,80.469467 
	C131.651657,80.231110 131.353271,79.992760 131.086029,78.983948 
	C130.742661,77.316124 130.399277,75.648293 129.901642,73.482620 
	C129.630264,73.286133 129.358887,73.089653 129.152390,72.851669 
	C129.152390,72.851669 129.177872,72.778992 129.171799,72.059204 
	C126.833160,68.278305 124.494530,64.497398 122.005188,60.064590 
	C119.672531,57.040146 117.339874,54.015705 114.965668,50.313087 
	C113.977661,48.871956 112.989655,47.430828 111.999771,45.201973 
	C111.152405,40.809654 115.710220,42.919762 117.808929,41.096115 
	C119.187515,41.218597 120.566093,41.341080 122.156898,42.054718 
	C125.384918,44.807545 132.237869,43.945808 131.031967,51.826748 
	C131.692963,52.741989 132.574127,54.542004 132.982117,54.440475 
	C139.692657,52.770622 146.343613,50.861202 153.416000,48.864960 
	C153.495193,48.745293 153.669113,48.573479 153.636978,48.515106 
	C153.506302,48.277702 153.312424,48.075089 153.012894,47.455219 
	C153.012894,47.455219 152.794250,47.091362 152.816162,46.367764 
	C149.256927,39.393826 145.697693,32.419891 141.763031,24.710377 
	C140.243378,27.829956 139.239807,29.890108 137.981339,32.473518 
	C126.995811,28.764973 115.962509,27.596840 104.349907,31.749050 
	C102.498375,27.723328 100.646843,23.697605 98.486359,19.000134 
	C97.844864,20.916018 97.354813,22.379608 96.198196,24.020308 
	C91.155968,31.029018 86.113747,38.037727 80.713348,45.610886 
	C76.803139,51.072105 72.892921,56.533321 68.446823,62.402485 
	C66.594955,66.259506 64.743088,70.116531 62.524094,74.624847 
	C61.974369,79.750336 61.424641,84.875824 60.407482,90.454369 
	C60.838535,91.987556 61.269588,93.520737 61.794777,95.867653 
M43.177361,157.900406 
	C44.819805,158.938049 46.522511,159.893433 48.085892,161.038971 
	C49.368027,161.978439 50.484421,163.144119 51.674286,164.209518 
	C52.278591,163.737946 52.882893,163.266373 53.487198,162.794800 
	C49.786003,154.923080 46.157490,147.014465 42.220192,139.262680 
	C41.957508,138.745499 38.578304,138.843475 37.983109,139.645569 
	C36.240463,141.994003 35.078396,144.800781 33.860855,147.505402 
	C31.530197,152.682693 29.318361,157.913483 27.057219,163.122070 
	C29.092339,163.618027 30.993698,163.450989 31.209373,162.758759 
	C33.084370,156.740677 37.927521,157.946152 43.177361,157.900406 
M156.389389,148.624512 
	C159.754288,147.642319 163.143143,146.588013 165.122879,151.943069 
	C162.750610,152.059433 160.831635,152.049469 158.938843,152.267059 
	C154.321930,152.797821 151.384460,155.612564 152.083511,159.065826 
	C152.956238,163.377106 156.214966,164.244476 160.051208,163.941940 
	C162.758926,163.728409 165.465378,163.498825 168.809586,163.224045 
	C168.809586,159.564026 169.362305,155.678848 168.622620,152.057663 
	C168.096222,149.480515 166.273148,145.859497 164.233521,145.212906 
	C161.316025,144.288040 157.396255,144.999496 154.426971,146.251419 
	C152.099609,147.232666 153.241928,148.854614 156.389389,148.624512 
M141.224609,163.967499 
	C142.188324,163.748245 143.359741,163.798782 144.070770,163.251328 
	C145.389786,162.235825 146.439896,160.871078 147.601974,159.651764 
	C146.086319,159.839142 144.460388,159.738815 143.076248,160.269333 
	C139.333344,161.703979 136.765564,160.528351 135.118729,155.774689 
	C139.705780,155.774689 144.090912,155.774689 148.394516,155.774689 
	C150.013458,150.509750 147.880295,147.345963 144.104614,145.244781 
	C140.087646,143.009308 135.795090,143.779099 133.429382,147.419312 
	C131.658020,150.144989 130.694748,154.201324 131.176422,157.392792 
	C131.861115,161.929245 135.610092,164.176376 141.224609,163.967499 
M111.158546,145.051849 
	C110.429634,146.058472 109.133003,147.031876 109.071846,148.077545 
	C108.830215,152.208847 108.836929,156.370667 109.070869,160.503098 
	C109.133415,161.608093 110.329056,162.648956 111.004501,163.719269 
	C111.693642,162.642883 112.807831,161.632477 112.987160,160.476974 
	C113.415695,157.715744 112.797493,154.648346 113.772171,152.163635 
	C114.480331,150.358353 117.106750,148.156815 118.790802,148.226807 
	C120.283875,148.288864 122.383102,151.041168 122.906105,152.962173 
	C123.621063,155.588287 122.995293,158.558090 123.169319,161.366623 
	C123.217697,162.147415 124.061798,162.878922 124.540855,163.633041 
	C125.250053,163.071518 126.573441,162.507553 126.571220,161.948853 
	C126.553551,157.510117 126.964157,152.900116 125.896332,148.683823 
	C124.873558,144.645340 121.165558,143.579132 117.025459,144.618530 
	C115.401840,145.026123 113.665001,144.982773 111.158546,145.051849 
z"/>
<path fill="#ABD4B6" opacity="1.000000" stroke="none" 
	d="
M104.971298,32.097492 
	C115.962509,27.596840 126.995811,28.764973 137.981339,32.473518 
	C139.239807,29.890108 140.243378,27.829956 141.763031,24.710377 
	C145.697693,32.419891 149.256927,39.393826 152.470123,46.668282 
	C143.842316,41.680878 134.909653,38.364265 124.930328,37.639771 
	C121.781418,36.516068 117.959671,34.252247 115.770599,35.323811 
	C110.957031,37.680073 108.277336,34.889469 104.965263,32.754021 
	C104.968887,32.535194 104.971298,32.097492 104.971298,32.097492 
z"/>
<path fill="#8BC49D" opacity="1.000000" stroke="none" 
	d="
M60.874912,90.001312 
	C61.424641,84.875824 61.974369,79.750336 63.069664,74.278763 
	C65.322121,73.694443 67.029007,73.456215 68.594528,73.237717 
	C70.095795,69.378372 71.533386,65.682724 73.118286,61.668900 
	C75.173042,58.561344 77.080490,55.771954 79.293900,53.144699 
	C80.776314,54.548168 81.952782,55.789497 82.988937,57.344406 
	C79.180832,64.298584 75.513046,70.939178 71.635345,77.761154 
	C71.318207,78.287117 71.210968,78.631691 71.006592,79.332825 
	C70.788986,80.418114 70.668526,81.146851 70.365662,82.196167 
	C70.075844,86.690910 69.968422,90.865082 69.870293,95.450150 
	C70.283997,98.573463 70.688408,101.285858 70.772758,103.872299 
	C68.021248,100.812469 65.589806,97.878609 63.112968,94.591125 
	C62.336689,92.825447 61.605801,91.413383 60.874912,90.001312 
z"/>
<path fill="#7EBB93" opacity="1.000000" stroke="none" 
	d="
M124.998070,38.012589 
	C134.909653,38.364265 143.842316,41.680878 152.459167,47.030079 
	C152.794250,47.091362 153.012894,47.455219 153.023071,47.941826 
	C153.024826,48.620808 153.016388,48.813190 153.007935,49.005569 
	C146.343613,50.861202 139.692657,52.770622 132.982117,54.440475 
	C132.574127,54.542004 131.692963,52.741989 131.334259,51.222397 
	C132.389008,48.889446 133.141479,47.160843 134.323395,44.445721 
	C129.707291,43.333652 125.825981,42.398605 121.944679,41.463562 
	C120.566093,41.341080 119.187515,41.218597 117.329193,40.833221 
	C116.595741,40.350491 116.342026,40.130653 116.337524,39.639297 
	C119.390511,38.916054 122.194290,38.464321 124.998070,38.012589 
z"/>
<path fill="#9CCDDD" opacity="1.000000" stroke="none" 
	d="
M42.733025,157.900238 
	C37.927521,157.946152 33.084370,156.740677 31.209373,162.758759 
	C30.993698,163.450989 29.092339,163.618027 27.057219,163.122070 
	C29.318361,157.913483 31.530197,152.682693 33.860855,147.505402 
	C35.078396,144.800781 36.240463,141.994003 37.983109,139.645569 
	C38.578304,138.843475 41.957508,138.745499 42.220192,139.262680 
	C46.157490,147.014465 49.786003,154.923080 53.487198,162.794800 
	C52.882893,163.266373 52.278591,163.737946 51.674286,164.209518 
	C50.484421,163.144119 49.368027,161.978439 48.085892,161.038971 
	C46.522511,159.893433 44.819805,158.938049 42.733025,157.900238 
M43.847500,150.648560 
	C42.743099,148.186783 41.638702,145.725006 40.115952,142.330719 
	C38.145596,146.777481 36.654247,150.143204 34.678181,154.602859 
	C37.780590,154.602859 40.094662,154.453476 42.381756,154.638153 
	C45.737705,154.909149 45.022461,153.219345 43.847500,150.648560 
z"/>
<path fill="#9ECEDF" opacity="1.000000" stroke="none" 
	d="
M64.978226,144.092972 
	C65.361938,144.128250 65.745644,144.163528 66.624100,144.448273 
	C68.383301,145.122025 69.436981,148.712875 70.979843,144.954742 
	C71.684357,144.983261 72.388878,145.011780 73.485283,145.529755 
	C73.913399,154.000046 73.949623,161.980896 73.598869,169.975250 
	C72.183952,170.007538 71.156013,170.026306 70.128075,170.045074 
	C70.128075,167.931610 70.128075,165.818130 70.128075,164.561646 
	C65.593956,163.664658 61.555519,163.404648 58.022209,161.932373 
	C56.333633,161.228775 55.134830,158.357986 54.533253,156.236526 
	C53.124527,151.268692 56.226967,146.764862 62.994385,144.152069 
	C64.105934,144.107498 64.542076,144.100235 64.978226,144.092972 
M59.203117,150.659821 
	C57.352978,154.583694 58.384205,157.735367 61.939522,160.005203 
	C64.965096,161.936798 68.119141,160.647095 69.020958,157.999954 
	C69.893471,155.438812 69.732788,151.399918 68.203148,149.414261 
	C65.996391,146.549622 62.331635,147.085754 59.203117,150.659821 
z"/>
<path fill="#8AC8DD" opacity="1.000000" stroke="none" 
	d="
M122.155891,60.716499 
	C124.494530,64.497398 126.833160,68.278305 128.750793,72.492348 
	C124.810974,73.688950 121.193298,74.171890 117.823837,75.359238 
	C116.544716,75.809990 115.836884,77.881981 114.619278,78.980591 
	C110.627007,74.064636 106.884125,69.383110 103.132339,64.521149 
	C103.123436,64.340706 102.998474,64.001701 102.989334,63.676270 
	C102.901634,62.924210 102.823082,62.497581 103.212952,62.050610 
	C107.085281,62.365398 110.992233,61.749756 113.790131,63.230175 
	C119.940857,66.484627 119.712013,66.917122 122.155891,60.716499 
z"/>
<path fill="#8FCAC9" opacity="1.000000" stroke="none" 
	d="
M73.002182,114.998978 
	C72.246628,114.284225 71.491074,113.569473 70.993195,112.392166 
	C72.990753,112.124962 74.745003,112.237518 76.466942,112.536270 
	C78.698036,112.923340 80.903389,113.458817 83.468109,113.966629 
	C85.567017,114.713699 87.317627,115.424530 89.304520,116.405266 
	C95.525978,117.418892 101.497963,118.314957 107.502525,118.834702 
	C110.063744,119.056396 112.692993,118.492157 115.291328,118.285080 
	C111.845627,119.988297 108.562408,122.527832 104.923157,123.234894 
	C94.787949,125.204033 84.884277,124.497124 76.093750,117.077682 
	C74.925751,115.955589 73.963966,115.477287 73.002182,114.998978 
z"/>
<path fill="#A4D1B0" opacity="1.000000" stroke="none" 
	d="
M78.987946,52.982567 
	C77.080490,55.771954 75.173042,58.561344 72.720436,61.672855 
	C71.111084,61.994827 70.046898,61.994682 68.982704,61.994537 
	C72.892921,56.533321 76.803139,51.072105 81.254761,45.315445 
	C83.051620,44.325916 84.315285,43.646214 85.560951,42.934990 
	C89.035126,40.951378 92.501831,38.954704 96.217789,37.245033 
	C100.370956,38.712090 104.277824,39.897301 108.003922,41.393654 
	C104.887016,43.121971 101.950874,44.539143 98.676125,46.027336 
	C95.706650,47.448864 93.075783,48.799377 90.109177,49.985405 
	C85.661362,45.048008 84.432137,45.088867 80.941849,50.121304 
	C80.283676,51.070290 79.638901,52.028572 78.987946,52.982567 
z"/>
<path fill="#8FCCE1" opacity="1.000000" stroke="none" 
	d="
M122.080536,60.390545 
	C119.712013,66.917122 119.940857,66.484627 113.790131,63.230175 
	C110.992233,61.749756 107.085281,62.365398 102.991768,61.926170 
	C101.883080,61.529522 101.464020,61.236977 101.028397,60.975410 
	C101.011848,61.006386 101.064224,60.958893 101.027451,60.637779 
	C100.372971,59.455032 99.755264,58.593395 99.220764,57.529011 
	C99.303970,57.326260 99.531418,56.951576 99.637520,56.639114 
	C104.016945,52.217934 109.355362,51.156269 115.007210,50.991264 
	C117.339874,54.015705 119.672531,57.040146 122.080536,60.390545 
z"/>
<path fill="#61ABC9" opacity="1.000000" stroke="none" 
	d="
M115.591850,118.221542 
	C112.692993,118.492157 110.063744,119.056396 107.502525,118.834702 
	C101.497963,118.314957 95.525978,117.418892 89.745285,116.354980 
	C96.822105,116.471916 102.931404,114.566132 108.591881,110.021568 
	C113.306046,108.921906 117.631859,107.890533 122.268951,106.810806 
	C124.682251,104.909950 126.158676,105.288956 126.982269,107.996559 
	C125.418045,109.780029 123.853828,111.563507 121.876694,113.719238 
	C121.299438,114.389496 121.135109,114.687500 120.970779,114.985504 
	C120.417732,115.163078 119.864685,115.340645 118.907852,115.827553 
	C118.348206,116.428017 118.192352,116.719131 118.036507,117.010254 
	C117.321793,117.392838 116.607079,117.775429 115.591850,118.221542 
z"/>
<path fill="#ABABAD" opacity="1.000000" stroke="none" 
	d="
M156.023026,148.757004 
	C153.241928,148.854614 152.099609,147.232666 154.426971,146.251419 
	C157.396255,144.999496 161.316025,144.288040 164.233521,145.212906 
	C166.273148,145.859497 168.096222,149.480515 168.622620,152.057663 
	C169.362305,155.678848 168.809586,159.564026 168.809586,163.224045 
	C165.465378,163.498825 162.758926,163.728409 160.051208,163.941940 
	C156.214966,164.244476 152.956238,163.377106 152.083511,159.065826 
	C151.384460,155.612564 154.321930,152.797821 158.938843,152.267059 
	C160.831635,152.049469 162.750610,152.059433 165.122879,151.943069 
	C163.143143,146.588013 159.754288,147.642319 156.023026,148.757004 
M162.283585,154.977036 
	C161.459091,154.981018 160.480728,154.700867 159.841476,155.046997 
	C158.422974,155.815048 157.041794,156.778183 155.980377,157.962112 
	C155.791641,158.172638 157.347046,160.740067 157.878693,160.665344 
	C160.131531,160.348709 162.301987,159.445969 164.502563,158.757416 
	C164.041199,157.510544 163.579834,156.263687 162.283585,154.977036 
z"/>
<path fill="#A9A9AA" opacity="1.000000" stroke="none" 
	d="
M140.820221,163.971222 
	C135.610092,164.176376 131.861115,161.929245 131.176422,157.392792 
	C130.694748,154.201324 131.658020,150.144989 133.429382,147.419312 
	C135.795090,143.779099 140.087646,143.009308 144.104614,145.244781 
	C147.880295,147.345963 150.013458,150.509750 148.394516,155.774689 
	C144.090912,155.774689 139.705780,155.774689 135.118729,155.774689 
	C136.765564,160.528351 139.333344,161.703979 143.076248,160.269333 
	C144.460388,159.738815 146.086319,159.839142 147.601974,159.651764 
	C146.439896,160.871078 145.389786,162.235825 144.070770,163.251328 
	C143.359741,163.798782 142.188324,163.748245 140.820221,163.971222 
M144.553116,152.858215 
	C145.467133,149.516266 144.898773,148.535736 141.422058,147.634781 
	C137.376648,146.586456 135.289597,148.479538 133.967163,152.932739 
	C137.588501,152.932739 140.670731,152.932739 144.553116,152.858215 
z"/>
<path fill="#95C0A3" opacity="1.000000" stroke="none" 
	d="
M69.700180,170.107269 
	C71.156013,170.026306 72.183952,170.007538 74.008514,170.001205 
	C76.168159,169.975739 77.531166,169.937836 79.321945,169.946945 
	C80.891479,169.914673 82.033257,169.835419 83.175034,169.756165 
	C93.847786,169.775299 104.520538,169.794434 115.602173,170.223633 
	C115.990959,171.125610 115.970871,171.617538 115.950783,172.109451 
	C105.296616,172.191864 94.642448,172.274261 83.225632,172.324432 
	C81.639610,172.522491 80.816238,172.752823 79.992874,172.983139 
	C72.630463,173.395233 65.268044,173.807312 57.227852,174.266968 
	C56.263439,174.456085 56.062584,174.676041 55.947502,174.974396 
	C51.822155,175.283951 47.696808,175.593506 43.571461,175.903061 
	C43.516819,175.316254 43.462173,174.729462 43.407528,174.142670 
	C52.029118,172.818268 60.650707,171.493881 69.700180,170.107269 
z"/>
<path fill="#A8AAAC" opacity="1.000000" stroke="none" 
	d="
M111.569138,145.098312 
	C113.665001,144.982773 115.401840,145.026123 117.025459,144.618530 
	C121.165558,143.579132 124.873558,144.645340 125.896332,148.683823 
	C126.964157,152.900116 126.553551,157.510117 126.571220,161.948853 
	C126.573441,162.507553 125.250053,163.071518 124.540848,163.633041 
	C124.061798,162.878922 123.217697,162.147415 123.169319,161.366623 
	C122.995293,158.558090 123.621063,155.588287 122.906105,152.962173 
	C122.383102,151.041168 120.283875,148.288864 118.790802,148.226807 
	C117.106750,148.156815 114.480331,150.358353 113.772171,152.163635 
	C112.797493,154.648346 113.415695,157.715744 112.987160,160.476974 
	C112.807831,161.632477 111.693642,162.642883 111.004509,163.719269 
	C110.329056,162.648956 109.133415,161.608093 109.070869,160.503098 
	C108.836929,156.370667 108.830215,152.208847 109.071846,148.077545 
	C109.133003,147.031876 110.429634,146.058472 111.569138,145.098312 
z"/>
<path fill="#80C4DA" opacity="1.000000" stroke="none" 
	d="
M114.868668,79.215027 
	C115.836884,77.881981 116.544716,75.809990 117.823837,75.359238 
	C121.193298,74.171890 124.810974,73.688950 128.753845,72.852242 
	C129.177872,72.778992 129.152390,72.851669 129.197144,73.118607 
	C129.513229,73.583855 129.784576,73.782166 130.055908,73.980469 
	C130.399277,75.648293 130.742661,77.316124 131.152206,79.645309 
	C131.504471,80.549164 131.790573,80.791649 132.076660,81.034134 
	C132.089005,81.454346 132.101349,81.874565 131.823105,82.808746 
	C130.890869,83.760406 130.270203,84.538559 129.604065,84.579659 
	C125.741211,84.817963 121.867653,84.882713 117.765808,85.006081 
	C117.533897,85.005981 117.070030,85.009842 116.888184,84.708641 
	C116.093773,82.676636 115.481216,80.945831 114.868668,79.215027 
z"/>
<path fill="#EDFAFC" opacity="1.000000" stroke="none" 
	d="
M78.894180,169.899933 
	C77.531166,169.937836 76.168159,169.975739 74.395493,169.987701 
	C73.949623,161.980896 73.913399,154.000046 73.836601,145.562225 
	C75.265190,145.074982 76.734344,145.044724 78.616531,145.486877 
	C79.021133,149.273453 78.901184,152.591888 79.027565,155.900940 
	C79.288322,162.728668 83.289627,165.358017 89.709244,163.181000 
	C90.679031,162.852112 91.886452,163.223969 92.983948,163.271698 
	C88.373138,167.623062 81.640083,166.845444 78.122765,161.555344 
	C77.680023,161.650955 77.237282,161.746567 76.794548,161.842178 
	C77.428429,164.031799 78.062309,166.221405 78.837280,168.952576 
	C78.978378,169.494156 78.894180,169.899933 78.894180,169.899933 
z"/>
<path fill="#99CCDE" opacity="1.000000" stroke="none" 
	d="
M93.358826,163.235870 
	C91.886452,163.223969 90.679031,162.852112 89.709244,163.181000 
	C83.289627,165.358017 79.288322,162.728668 79.027565,155.900940 
	C78.901184,152.591888 79.021133,149.273453 79.053368,145.498627 
	C80.016785,145.174545 80.956390,145.311081 82.042343,146.161835 
	C82.160103,149.362167 81.987617,151.857101 82.139687,154.332123 
	C82.325859,157.362000 82.692078,160.868042 86.681435,160.800995 
	C90.675545,160.733841 92.413231,157.985321 91.984398,153.996216 
	C92.001915,153.553146 92.019432,153.110077 92.050095,151.907471 
	C92.042755,149.431747 92.022255,147.715561 92.001755,145.999390 
	C93.073181,146.101959 94.144615,146.204529 95.222893,147.003799 
	C95.454666,149.144775 95.679581,150.589050 95.904503,152.033325 
	C95.894485,152.766769 95.884468,153.500229 95.647354,154.915253 
	C95.358124,158.089157 95.296013,160.581512 95.233902,163.073853 
	C94.733833,163.115936 94.233772,163.158005 93.358826,163.235870 
z"/>
<path fill="#BCDFD7" opacity="1.000000" stroke="none" 
	d="
M95.971481,36.963181 
	C92.501831,38.954704 89.035126,40.951378 85.560951,42.934990 
	C84.315285,43.646214 83.051620,44.325916 81.433846,45.033218 
	C86.113747,38.037727 91.155968,31.029018 96.541306,24.325102 
	C96.173386,26.931593 95.238525,29.196571 94.852165,31.551535 
	C94.676834,32.620193 95.588837,33.867237 96.003357,35.354790 
	C95.989914,36.105206 95.980698,36.534191 95.971481,36.963181 
z"/>
<path fill="#5DA5C3" opacity="1.000000" stroke="none" 
	d="
M114.986435,50.652176 
	C109.355362,51.156269 104.016945,52.217934 99.484528,56.312920 
	C98.816109,54.225266 98.406784,52.151352 98.256821,50.014969 
	C98.733864,49.689297 98.951561,49.426098 99.199600,49.186127 
	C99.229950,49.209362 99.305122,49.223160 99.681717,49.201115 
	C104.039429,48.115944 108.020546,47.052818 112.001648,45.989700 
	C112.989655,47.430828 113.977661,48.871956 114.986435,50.652176 
z"/>
<path fill="#D1F1FA" opacity="1.000000" stroke="none" 
	d="
M127.341499,107.958252 
	C126.158676,105.288956 124.682251,104.909950 122.224594,106.489105 
	C121.194313,105.774139 120.519661,105.332527 120.050278,104.622902 
	C125.794273,100.939186 130.369583,96.749435 131.889008,89.791039 
	C132.181992,89.265945 132.442841,89.071465 132.783508,88.984085 
	C134.721970,93.653000 131.834824,104.409042 127.341499,107.958252 
z"/>
<path fill="#A4D3E0" opacity="1.000000" stroke="none" 
	d="
M96.007591,35.033360 
	C95.588837,33.867237 94.676834,32.620193 94.852165,31.551535 
	C95.238525,29.196571 96.173386,26.931593 96.874588,24.236547 
	C97.354813,22.379608 97.844864,20.916018 98.486359,19.000134 
	C100.646843,23.697605 102.498375,27.723328 104.660599,31.923271 
	C104.971298,32.097492 104.968887,32.535194 104.581184,32.773151 
	C101.464851,33.685192 98.736221,34.359276 96.007591,35.033360 
z"/>
<path fill="#7ABED7" opacity="1.000000" stroke="none" 
	d="
M132.867844,88.587997 
	C132.442841,89.071465 132.181992,89.265945 131.531677,89.840302 
	C128.738205,89.997368 126.384407,90.070137 124.098495,89.710907 
	C121.978546,89.377747 119.931129,88.583076 117.796036,87.735809 
	C117.780525,87.136055 117.820770,86.792099 117.901566,86.088264 
	C117.960655,85.487648 117.979179,85.246910 117.997711,85.006180 
	C121.867653,84.882713 125.741211,84.817963 129.604065,84.579659 
	C130.270203,84.538559 130.890869,83.760406 131.832428,83.124817 
	C132.405609,84.681908 132.678894,86.436913 132.867844,88.587997 
z"/>
<path fill="#A7CAB1" opacity="1.000000" stroke="none" 
	d="
M115.908646,172.185120 
	C115.970871,171.617538 115.990959,171.125610 116.021332,170.263672 
	C117.411041,169.873474 118.790451,169.853287 120.833984,169.863678 
	C121.668915,169.870865 121.839737,169.847488 122.010551,169.824127 
	C130.739471,170.829697 139.468399,171.835266 148.600159,173.225159 
	C148.989471,174.014328 148.975967,174.419220 148.962463,174.824097 
	C147.893646,174.816605 146.824829,174.809097 145.250793,174.629364 
	C144.408096,174.346603 144.160858,174.465607 144.003876,174.814133 
	C143.258072,174.859070 142.512253,174.904007 141.290665,174.539474 
	C138.458954,173.803711 136.103027,173.477417 133.747101,173.151123 
	C129.809570,173.077621 125.872047,173.004120 121.193909,172.685242 
	C118.933617,172.437149 117.413948,172.434448 115.894272,172.431763 
	C115.894272,172.431763 115.866516,172.260773 115.908646,172.185120 
z"/>
<path fill="#E6F8EF" opacity="1.000000" stroke="none" 
	d="
M112.000717,45.595833 
	C108.020546,47.052818 104.039429,48.115944 99.588867,48.798630 
	C99.084526,47.597569 99.049629,46.776943 99.014732,45.956318 
	C101.950874,44.539143 104.887016,43.121971 108.395668,41.374603 
	C111.341553,40.666546 113.714935,40.288681 116.088310,39.910816 
	C116.342026,40.130653 116.595741,40.350491 116.911720,40.818726 
	C115.710220,42.919762 111.152405,40.809654 112.000717,45.595833 
z"/>
<path fill="#A9D6D0" opacity="1.000000" stroke="none" 
	d="
M63.158356,94.944740 
	C65.589806,97.878609 68.021248,100.812469 70.979340,103.960876 
	C71.766121,104.351891 71.937706,104.591736 71.970383,105.240631 
	C70.565598,106.791412 69.211143,107.996521 67.856689,109.201622 
	C65.836052,104.756966 63.815414,100.312309 62.113739,95.435822 
	C62.674587,94.984230 62.916470,94.964485 63.158356,94.944740 
z"/>
<path fill="#9CCDA9" opacity="1.000000" stroke="none" 
	d="
M68.714767,62.198509 
	C70.046898,61.994682 71.111084,61.994827 72.573128,61.991020 
	C71.533386,65.682724 70.095795,69.378372 68.594528,73.237717 
	C67.029007,73.456215 65.322121,73.694443 63.253227,73.953110 
	C64.743088,70.116531 66.594955,66.259506 68.714767,62.198509 
z"/>
<path fill="#95C8D8" opacity="1.000000" stroke="none" 
	d="
M100.870956,158.973251 
	C100.928436,154.641174 100.985924,150.309082 101.436279,145.497955 
	C102.550446,145.016052 103.271744,145.013199 103.993034,145.010330 
	C103.993034,145.010330 104.000267,145.000000 104.014374,145.470398 
	C104.040459,150.580994 104.248047,155.234955 103.923569,159.851501 
	C103.844810,160.972031 102.013344,161.969376 100.987808,163.023361 
	C100.987808,163.023361 101.001900,163.000931 101.007355,162.602234 
	C100.965530,161.126785 100.918243,160.050018 100.870956,158.973251 
z"/>
<path fill="#EDFAFC" opacity="1.000000" stroke="none" 
	d="
M91.642937,154.050049 
	C92.413231,157.985321 90.675545,160.733841 86.681435,160.800995 
	C82.692078,160.868042 82.325859,157.362000 82.139687,154.332123 
	C81.987617,151.857101 82.160103,149.362167 82.294037,146.425400 
	C82.929115,147.504776 83.557823,149.008987 83.965408,150.570908 
	C84.576973,152.914520 85.033447,155.298599 85.555878,157.665482 
	C87.471077,156.478271 89.386276,155.291061 91.642937,154.050049 
z"/>
<path fill="#9BCECD" opacity="1.000000" stroke="none" 
	d="
M67.996048,109.472610 
	C69.211143,107.996521 70.565598,106.791412 72.271523,105.407272 
	C76.121941,108.128944 79.620880,111.029671 83.119820,113.930397 
	C80.903389,113.458817 78.698036,112.923340 76.466942,112.536270 
	C74.745003,112.237518 72.990753,112.124962 70.864792,112.099915 
	C69.697617,111.428001 68.916512,110.585793 67.996048,109.472610 
z"/>
<path fill="#EDFAFC" opacity="1.000000" stroke="none" 
	d="
M101.053192,163.373932 
	C102.013344,161.969376 103.844810,160.972031 103.923569,159.851501 
	C104.248047,155.234955 104.040459,150.580994 104.009003,145.473587 
	C104.649704,145.929367 105.808220,146.813278 105.884232,147.782089 
	C106.221992,152.086929 106.332230,156.416092 106.333290,160.736496 
	C106.333565,161.864639 105.915344,163.691071 105.211823,163.963440 
	C104.052078,164.412445 102.503349,163.856735 101.053192,163.373932 
z"/>
<path fill="#EDFAFC" opacity="1.000000" stroke="none" 
	d="
M104.002213,144.625977 
	C103.271744,145.013199 102.550446,145.016052 101.470184,145.038208 
	C100.768890,143.254257 100.171425,141.449997 100.178497,139.648117 
	C100.182838,138.540970 100.848412,137.072586 101.710678,136.449936 
	C102.377785,135.968201 104.418442,136.168427 104.772682,136.736404 
	C105.438736,137.804367 105.602776,139.386963 105.459518,140.699234 
	C105.326454,141.918198 104.520874,143.063751 104.002213,144.625977 
z"/>
<path fill="#E6F8EF" opacity="1.000000" stroke="none" 
	d="
M122.050789,41.759140 
	C125.825981,42.398605 129.707291,43.333652 134.323395,44.445721 
	C133.141479,47.160843 132.389008,48.889446 131.375412,50.827919 
	C132.237869,43.945808 125.384918,44.807545 122.050789,41.759140 
z"/>
<path fill="#EDFAFC" opacity="1.000000" stroke="none" 
	d="
M100.524429,158.974472 
	C100.918243,160.050018 100.965530,161.126785 100.995773,162.607819 
	C99.332230,163.016602 97.685715,163.021118 95.636551,163.049744 
	C95.296013,160.581512 95.358124,158.089157 95.657242,155.281921 
	C97.322128,156.303238 98.750023,157.639465 100.524429,158.974472 
z"/>
<path fill="#B5D3BF" opacity="1.000000" stroke="none" 
	d="
M149.338989,174.933060 
	C148.975967,174.419220 148.989471,174.014328 149.001495,173.304596 
	C151.288788,173.339188 153.577576,173.678619 155.866364,174.018036 
	C155.746140,174.650421 155.625900,175.282806 155.505661,175.915192 
	C153.575607,175.624130 151.645554,175.333084 149.338989,174.933060 
z"/>
<path fill="#B5D3BF" opacity="1.000000" stroke="none" 
	d="
M133.920334,173.499146 
	C136.103027,173.477417 138.458954,173.803711 140.917953,174.499619 
	C138.711868,174.528549 136.402725,174.187851 133.920334,173.499146 
z"/>
<path fill="#B9DCD1" opacity="1.000000" stroke="none" 
	d="
M63.112968,94.591125 
	C62.916470,94.964485 62.674587,94.984230 62.066673,95.028954 
	C61.269588,93.520737 60.838535,91.987556 60.641197,90.227844 
	C61.605801,91.413383 62.336689,92.825447 63.112968,94.591125 
z"/>
<path fill="#EDFAFC" opacity="1.000000" stroke="none" 
	d="
M91.634926,146.073120 
	C92.022255,147.715561 92.042755,149.431747 92.025528,151.575562 
	C88.924942,150.398010 89.320763,148.367767 91.634926,146.073120 
z"/>
<path fill="#EDFAFC" opacity="1.000000" stroke="none" 
	d="
M96.181519,151.853760 
	C95.679581,150.589050 95.454666,149.144775 95.350388,147.329041 
	C98.770081,147.907990 97.851883,149.741348 96.181519,151.853760 
z"/>
<path fill="#E4F5E8" opacity="1.000000" stroke="none" 
	d="
M116.029869,172.732834 
	C117.413948,172.434448 118.933617,172.437149 120.734291,172.687805 
	C119.398682,172.968460 117.782074,173.001175 116.029869,172.732834 
z"/>
<path fill="#EDFAFC" opacity="1.000000" stroke="none" 
	d="
M70.726311,144.682556 
	C69.436981,148.712875 68.383301,145.122025 66.913109,144.438965 
	C67.962509,144.256927 69.217644,144.333664 70.726311,144.682556 
z"/>
<path fill="#E4F5E8" opacity="1.000000" stroke="none" 
	d="
M80.171638,173.224274 
	C80.816238,172.752823 81.639610,172.522491 82.777634,172.435028 
	C82.178329,172.873718 81.264366,173.169571 80.171638,173.224274 
z"/>
<path fill="#9BCECD" opacity="1.000000" stroke="none" 
	d="
M73.137558,115.286453 
	C73.963966,115.477287 74.925751,115.955589 75.910004,116.795433 
	C75.045952,116.629295 74.159439,116.101608 73.137558,115.286453 
z"/>
<path fill="#EDFAFC" opacity="1.000000" stroke="none" 
	d="
M64.949524,143.783539 
	C64.542076,144.100235 64.105934,144.107498 63.343231,144.095200 
	C63.244026,143.538925 63.471375,143.002213 63.698730,142.465500 
	C64.106102,142.801697 64.513466,143.137894 64.949524,143.783539 
z"/>
<path fill="#BADDC4" opacity="1.000000" stroke="none" 
	d="
M79.321945,169.946930 
	C78.894180,169.899933 78.978378,169.494156 79.000809,169.288849 
	C80.212379,169.170044 81.401527,169.256561 82.882858,169.549622 
	C82.033257,169.835419 80.891479,169.914673 79.321945,169.946930 
z"/>
<path fill="#E4F5E8" opacity="1.000000" stroke="none" 
	d="
M56.153519,174.927826 
	C56.062584,174.676041 56.263439,174.456085 56.775528,174.335205 
	C56.840977,174.596680 56.627159,174.771820 56.153519,174.927826 
z"/>
<path fill="#ABD4B6" opacity="1.000000" stroke="none" 
	d="
M153.211975,48.935265 
	C153.016388,48.813190 153.024826,48.620808 153.087555,48.144043 
	C153.312424,48.075089 153.506302,48.277702 153.636978,48.515106 
	C153.669113,48.573479 153.495193,48.745293 153.211975,48.935265 
z"/>
<path fill="#B5D3BF" opacity="1.000000" stroke="none" 
	d="
M144.249847,174.823166 
	C144.160858,174.465607 144.408096,174.346603 144.854279,174.566986 
	C144.962952,174.676880 144.495819,174.832199 144.249847,174.823166 
z"/>
<path fill="#7ABED7" opacity="1.000000" stroke="none" 
	d="
M132.013351,80.751801 
	C131.790573,80.791649 131.504471,80.549164 131.136627,80.030540 
	C131.353271,79.992760 131.651657,80.231110 132.013351,80.751801 
z"/>
<path fill="#E8F8EC" opacity="1.000000" stroke="none" 
	d="
M121.913071,169.688324 
	C121.839737,169.847488 121.668915,169.870865 121.247063,169.832062 
	C121.215706,169.427200 121.488892,169.354736 121.913071,169.688324 
z"/>
<path fill="#8AC8DD" opacity="1.000000" stroke="none" 
	d="
M129.978775,73.731544 
	C129.784576,73.782166 129.513229,73.583855 129.164703,73.139359 
	C129.358887,73.089653 129.630264,73.286133 129.978775,73.731544 
z"/>
<path fill="#D1F1FA" opacity="1.000000" stroke="none" 
	d="
M121.200401,114.873627 
	C121.135109,114.687500 121.299438,114.389496 121.711594,114.001877 
	C121.782959,114.195435 121.606491,114.478592 121.200401,114.873627 
z"/>
<path fill="#D1F1FA" opacity="1.000000" stroke="none" 
	d="
M118.253036,116.904114 
	C118.192352,116.719131 118.348206,116.428017 118.755356,116.076782 
	C118.924179,116.343483 118.745148,116.603920 118.253036,116.904114 
z"/>
<path fill="#A2D2B0" opacity="1.000000" stroke="none" 
	d="
M116.337524,39.639297 
	C113.714935,40.288681 111.341553,40.666546 108.576431,41.063461 
	C104.277824,39.897301 100.370956,38.712090 96.217789,37.245029 
	C95.980698,36.534191 95.989914,36.105206 96.003357,35.354790 
	C98.736221,34.359276 101.464851,33.685192 104.577560,32.991974 
	C108.277336,34.889469 110.957031,37.680073 115.770599,35.323811 
	C117.959671,34.252247 121.781418,36.516068 124.930328,37.639771 
	C122.194290,38.464321 119.390511,38.916054 116.337524,39.639297 
z"/>
<path fill="#F9FCFA" opacity="1.000000" stroke="none" 
	d="
M98.676125,46.027336 
	C99.049629,46.776943 99.084526,47.597569 99.212273,48.820679 
	C99.305122,49.223160 99.229950,49.209362 98.937134,49.236000 
	C98.428711,49.534241 98.213089,49.805840 97.997467,50.077438 
	C98.406784,52.151352 98.816109,54.225266 99.378418,56.625378 
	C99.531418,56.951576 99.303970,57.326260 99.180672,57.912727 
	C99.726326,59.319096 100.395279,60.138992 101.064224,60.958893 
	C101.064224,60.958893 101.011848,61.006386 101.016647,61.334583 
	C101.680458,62.442421 102.339462,63.222061 102.998474,64.001701 
	C102.998474,64.001701 103.123436,64.340706 103.089966,64.917618 
	C103.852432,67.018669 104.591927,68.575768 105.458298,70.058754 
	C106.591866,71.999130 107.753860,73.870705 104.385681,75.094650 
	C97.859871,71.267403 91.665329,67.521332 84.665504,63.288269 
	C84.665504,67.781647 84.665504,71.942322 84.700790,76.516205 
	C84.726562,78.593033 84.717041,80.256653 84.501022,82.151871 
	C84.861015,83.591866 85.427498,84.800262 86.001160,86.336014 
	C86.009773,87.099937 86.011200,87.536507 86.002304,88.353859 
	C85.955742,89.244072 85.919502,89.753510 85.653091,90.229836 
	C85.422913,90.196724 84.968430,90.097908 84.832840,89.778702 
	C80.942352,85.137672 76.202309,82.653816 70.548065,81.875580 
	C70.668526,81.146851 70.788986,80.418114 71.227966,79.164719 
	C71.646080,78.286621 71.745674,77.933197 71.845261,77.579773 
	C75.513046,70.939178 79.180832,64.298584 83.281326,57.204918 
	C85.957664,54.551201 88.201294,52.350548 90.444916,50.149895 
	C93.075783,48.799377 95.706650,47.448864 98.676125,46.027336 
z"/>
<path fill="#E4F9F8" opacity="1.000000" stroke="none" 
	d="
M83.468109,113.966629 
	C79.620880,111.029671 76.121941,108.128944 72.321854,105.061584 
	C71.937706,104.591736 71.766121,104.351891 71.299393,104.086838 
	C70.688408,101.285858 70.283997,98.573463 70.268349,95.447174 
	C71.185234,95.066528 71.713356,95.099770 72.196953,95.504234 
	C74.444458,96.859985 76.736496,97.844521 79.276047,98.984779 
	C80.008507,99.464996 80.493439,99.789490 80.797630,100.343361 
	C80.061607,100.723640 79.506332,100.874542 78.618721,101.008530 
	C77.111557,100.820564 75.936722,100.649506 73.329414,100.269867 
	C76.090080,103.539474 78.011932,105.815620 80.110405,108.394394 
	C85.450653,110.107178 90.614281,111.517326 96.088074,112.786041 
	C96.602226,111.793030 96.806213,110.941452 97.373032,110.115784 
	C100.009720,110.028862 102.283577,109.916039 105.010330,109.860046 
	C106.376663,109.974541 107.290100,110.032196 108.203529,110.089851 
	C102.931404,114.566132 96.822105,116.471916 89.509003,116.085068 
	C87.317627,115.424530 85.567017,114.713699 83.468109,113.966629 
z"/>
<path fill="#EBF9F8" opacity="1.000000" stroke="none" 
	d="
M72.241478,95.133011 
	C71.713356,95.099770 71.185234,95.066528 70.259056,95.036263 
	C69.968422,90.865082 70.075844,86.690910 70.365662,82.196167 
	C76.202309,82.653816 80.942352,85.137672 84.434769,89.743889 
	C80.466270,88.785507 76.895927,88.517769 73.734970,91.136292 
	C78.255447,92.796181 82.627861,94.401703 86.995262,96.371948 
	C86.971725,97.222656 86.953186,97.708633 86.582596,98.123352 
	C83.832100,97.113327 81.433647,96.174553 78.609589,95.153946 
	C76.203148,95.092407 74.222313,95.112709 72.241478,95.133011 
z"/>
<path fill="#93CAA3" opacity="1.000000" stroke="none" 
	d="
M90.109177,49.985405 
	C88.201294,52.350548 85.957664,54.551201 83.421646,56.891342 
	C81.952782,55.789497 80.776314,54.548168 79.293900,53.144699 
	C79.638901,52.028572 80.283676,51.070290 80.941849,50.121304 
	C84.432137,45.088867 85.661362,45.048008 90.109177,49.985405 
z"/>
<path fill="#EBF9F8" opacity="1.000000" stroke="none" 
	d="
M71.635345,77.761154 
	C71.745674,77.933197 71.646080,78.286621 71.325119,78.808151 
	C71.210968,78.631691 71.318207,78.287117 71.635345,77.761154 
z"/>
<path fill="#E6F6FA" opacity="1.000000" stroke="none" 
	d="
M44.001480,150.994720 
	C45.022461,153.219345 45.737705,154.909149 42.381756,154.638153 
	C40.094662,154.453476 37.780590,154.602859 34.678181,154.602859 
	C36.654247,150.143204 38.145596,146.777481 40.115952,142.330719 
	C41.638702,145.725006 42.743099,148.186783 44.001480,150.994720 
z"/>
<path fill="#F2FBFD" opacity="1.000000" stroke="none" 
	d="
M59.415081,150.332703 
	C62.331635,147.085754 65.996391,146.549622 68.203148,149.414261 
	C69.732788,151.399918 69.893471,155.438812 69.020958,157.999954 
	C68.119141,160.647095 64.965096,161.936798 61.939522,160.005203 
	C58.384205,157.735367 57.352978,154.583694 59.415081,150.332703 
z"/>
<path fill="#EEFBF8" opacity="1.000000" stroke="none" 
	d="
M86.934647,98.194603 
	C86.953186,97.708633 86.971725,97.222656 87.226326,96.206833 
	C87.611671,95.144722 87.760948,94.612457 88.081345,93.912468 
	C88.252464,93.744736 88.590889,93.408623 88.800102,93.572998 
	C89.352249,93.821213 89.695190,93.905045 90.179535,94.291977 
	C94.390862,100.617378 101.007919,102.365799 107.080811,105.027275 
	C107.536751,104.766876 107.992691,104.506485 108.448631,104.246086 
	C106.911690,100.506607 105.374748,96.767136 104.034004,92.758057 
	C106.614922,95.092957 108.999649,97.697449 111.384384,100.301949 
	C111.746193,100.267578 112.108002,100.233215 112.469810,100.198845 
	C111.975471,94.801270 111.481133,89.403687 110.972443,83.693207 
	C110.377266,82.556900 109.796432,81.733498 109.136208,80.581802 
	C107.610199,78.560944 106.163582,76.868385 104.716965,75.175835 
	C107.753860,73.870705 106.591866,71.999130 105.458298,70.058754 
	C104.591927,68.575768 103.852432,67.018669 103.098869,65.098061 
	C106.884125,69.383110 110.627007,74.064636 114.619278,78.980591 
	C115.481216,80.945831 116.093773,82.676636 116.934700,84.987625 
	C117.395714,85.861259 117.628365,86.154701 117.861008,86.448151 
	C117.820770,86.792099 117.780525,87.136055 117.781509,88.166359 
	C116.518562,94.695366 115.214394,100.538017 113.871094,106.556030 
	C115.344093,106.145462 117.594551,105.518188 119.845009,104.890915 
	C120.519661,105.332527 121.194313,105.774139 121.913315,106.537460 
	C117.631859,107.890533 113.306046,108.921906 108.591881,110.021568 
	C107.290100,110.032196 106.376663,109.974541 105.044029,109.536438 
	C100.173828,107.062355 95.722839,104.968712 91.189812,102.548798 
	C89.716736,100.879890 88.325691,99.537247 86.934647,98.194603 
z"/>
<path fill="#EEFBF8" opacity="1.000000" stroke="none" 
	d="
M102.989334,63.676270 
	C102.339462,63.222061 101.680458,62.442421 101.033203,61.303604 
	C101.464020,61.236977 101.883080,61.529522 102.523331,61.946510 
	C102.823082,62.497581 102.901634,62.924210 102.989334,63.676270 
z"/>
<path fill="#EEFBF8" opacity="1.000000" stroke="none" 
	d="
M101.027451,60.637779 
	C100.395279,60.138992 99.726326,59.319096 99.097473,58.115479 
	C99.755264,58.593395 100.372971,59.455032 101.027451,60.637779 
z"/>
<path fill="#F5F6F6" opacity="1.000000" stroke="none" 
	d="
M162.701019,154.996918 
	C163.579834,156.263687 164.041199,157.510544 164.502563,158.757416 
	C162.301987,159.445969 160.131531,160.348709 157.878693,160.665344 
	C157.347046,160.740067 155.791641,158.172638 155.980377,157.962112 
	C157.041794,156.778183 158.422974,155.815048 159.841476,155.046997 
	C160.480728,154.700867 161.459091,154.981018 162.701019,154.996918 
z"/>
<path fill="#F2F2F4" opacity="1.000000" stroke="none" 
	d="
M144.153046,152.895477 
	C140.670731,152.932739 137.588501,152.932739 133.967163,152.932739 
	C135.289597,148.479538 137.376648,146.586456 141.422058,147.634781 
	C144.898773,148.535736 145.467133,149.516266 144.153046,152.895477 
z"/>
<path fill="#77BBD5" opacity="1.000000" stroke="none" 
	d="
M117.901566,86.088264 
	C117.628365,86.154701 117.395714,85.861259 117.116547,85.288826 
	C117.070030,85.009842 117.533897,85.005981 117.765808,85.006081 
	C117.979179,85.246910 117.960655,85.487648 117.901566,86.088264 
z"/>
<path fill="#E6F8EF" opacity="1.000000" stroke="none" 
	d="
M98.256821,50.014969 
	C98.213089,49.805840 98.428711,49.534241 98.906784,49.212769 
	C98.951561,49.426098 98.733864,49.689297 98.256821,50.014969 
z"/>
<path fill="#77BBD5" opacity="1.000000" stroke="none" 
	d="
M120.050278,104.622902 
	C117.594551,105.518188 115.344093,106.145462 113.871094,106.556030 
	C115.214394,100.538017 116.518562,94.695366 117.837250,88.422165 
	C119.931129,88.583076 121.978546,89.377747 124.098495,89.710907 
	C126.384407,90.070137 128.738205,89.997368 131.419724,90.063805 
	C130.369583,96.749435 125.794273,100.939186 120.050278,104.622902 
z"/>
<path fill="#A7D2B2" opacity="1.000000" stroke="none" 
	d="
M104.385681,75.094650 
	C106.163582,76.868385 107.610199,78.560944 108.753738,80.581635 
	C103.150894,79.465675 98.805534,74.221642 92.457397,76.888458 
	C92.222672,76.987061 91.843407,76.675438 91.523537,76.648094 
	C89.238686,76.452827 86.951767,76.281754 84.665504,76.102989 
	C84.665504,71.942322 84.665504,67.781647 84.665504,63.288269 
	C91.665329,67.521332 97.859871,71.267403 104.385681,75.094650 
z"/>
<path fill="#9DCEAA" opacity="1.000000" stroke="none" 
	d="
M84.700790,76.516205 
	C86.951767,76.281754 89.238686,76.452827 91.523537,76.648094 
	C91.843407,76.675438 92.222672,76.987061 92.457397,76.888458 
	C98.805534,74.221642 103.150894,79.465675 108.833130,80.909927 
	C109.796432,81.733498 110.377266,82.556900 110.627533,83.843697 
	C105.790550,84.425545 101.283829,84.607712 96.778084,84.586159 
	C96.178513,84.583290 95.583893,83.546570 94.951668,82.692146 
	C94.512543,82.078758 94.108719,81.761856 93.704903,81.444954 
	C93.475067,81.958611 93.245224,82.472275 92.761536,82.989677 
	C92.338470,82.995613 92.169235,82.997810 91.572754,82.999924 
	C89.437553,83.003029 87.729599,83.006210 85.868362,82.758865 
	C85.379227,82.312317 85.043373,82.116295 84.707520,81.920265 
	C84.717041,80.256653 84.726562,78.593033 84.700790,76.516205 
z"/>
<path fill="#B6D8E0" opacity="1.000000" stroke="none" 
	d="
M87.910233,94.080200 
	C87.760948,94.612457 87.611671,95.144722 87.231331,95.842102 
	C82.627861,94.401703 78.255447,92.796181 73.734970,91.136292 
	C76.895927,88.517769 80.466270,88.785507 84.570358,90.063095 
	C84.968430,90.097908 85.422913,90.196724 85.675697,90.547630 
	C86.589066,91.959091 87.249649,93.019646 87.910233,94.080200 
z"/>
<path fill="#97C9A5" opacity="1.000000" stroke="none" 
	d="
M86.021637,83.009392 
	C87.729599,83.006210 89.437553,83.003029 91.572861,83.333710 
	C92.000587,84.112633 92.000977,84.557693 91.845215,85.306107 
	C90.064537,86.434776 88.439995,87.260086 86.612953,88.070190 
	C86.410446,88.054993 86.012627,87.973083 86.012619,87.973083 
	C86.011200,87.536507 86.009773,87.099937 86.011986,85.961044 
	C86.017632,84.508942 86.019630,83.759171 86.021637,83.009392 
z"/>
<path fill="#EEFBF8" opacity="1.000000" stroke="none" 
	d="
M86.002304,88.353859 
	C86.012627,87.973083 86.410446,88.054993 86.676117,88.427773 
	C87.491493,90.336578 88.041191,91.872597 88.590889,93.408623 
	C88.590889,93.408623 88.252464,93.744736 88.081345,93.912468 
	C87.249649,93.019646 86.589066,91.959091 85.905876,90.580742 
	C85.919502,89.753510 85.955742,89.244072 86.002304,88.353859 
z"/>
<path fill="#A7D2B2" opacity="1.000000" stroke="none" 
	d="
M85.868362,82.758865 
	C86.019630,83.759171 86.017632,84.508942 86.004807,85.633690 
	C85.427498,84.800262 84.861015,83.591866 84.501022,82.151871 
	C85.043373,82.116295 85.379227,82.312317 85.868362,82.758865 
z"/>
<path fill="#80BED6" opacity="1.000000" stroke="none" 
	d="
M95.777908,112.927475 
	C90.614281,111.517326 85.450653,110.107178 80.248016,108.084793 
	C79.817909,105.587006 79.426826,103.701447 79.392166,101.887711 
	C85.091705,105.615517 90.434807,109.271500 95.777908,112.927475 
z"/>
<path fill="#84C0D6" opacity="1.000000" stroke="none" 
	d="
M91.271843,102.875061 
	C95.722839,104.968712 100.173828,107.062355 104.591125,109.479614 
	C102.283577,109.916039 100.009720,110.028862 97.069641,109.943054 
	C93.240990,107.518761 90.078568,105.293083 87.350906,103.042358 
	C88.947731,102.969894 90.109787,102.922478 91.271843,102.875061 
z"/>
<path fill="#D4F2F9" opacity="1.000000" stroke="none" 
	d="
M86.916145,103.067406 
	C90.078568,105.293083 93.240990,107.518761 96.706802,109.917160 
	C96.806213,110.941452 96.602226,111.793030 96.088074,112.786041 
	C90.434807,109.271500 85.091705,105.615517 79.382767,101.689590 
	C79.016937,101.419632 78.951050,101.025444 78.951050,101.025444 
	C79.506332,100.874542 80.061607,100.723640 81.128235,100.343521 
	C83.027214,100.757202 84.414856,101.400093 85.944382,102.269043 
	C86.382454,102.684059 86.678642,102.873024 86.959984,103.044113 
	C86.945129,103.026253 86.916145,103.067406 86.916145,103.067406 
z"/>
<path fill="#8BC7D9" opacity="1.000000" stroke="none" 
	d="
M85.802498,102.042984 
	C84.414856,101.400093 83.027214,100.757202 81.308975,100.114151 
	C80.493439,99.789490 80.008507,99.464996 79.267120,98.626343 
	C79.018852,97.153374 79.027023,96.194580 79.035194,95.235779 
	C81.433647,96.174553 83.832100,97.113327 86.582603,98.123352 
	C88.325691,99.537247 89.716736,100.879890 91.189812,102.548798 
	C90.109787,102.922478 88.947731,102.969894 87.350906,103.042358 
	C86.916145,103.067406 86.945129,103.026253 86.841766,102.797729 
	C86.426430,102.393799 86.114464,102.218391 85.802498,102.042984 
z"/>
<path fill="#8BC4D9" opacity="1.000000" stroke="none" 
	d="
M78.618721,101.008530 
	C78.951050,101.025444 79.016937,101.419632 79.026337,101.617760 
	C79.426826,103.701447 79.817909,105.587006 80.071396,107.782166 
	C78.011932,105.815620 76.090080,103.539474 73.329414,100.269867 
	C75.936722,100.649506 77.111557,100.820564 78.618721,101.008530 
z"/>
<path fill="#99C8DC" opacity="1.000000" stroke="none" 
	d="
M78.609589,95.153946 
	C79.027023,96.194580 79.018852,97.153374 79.019600,98.470612 
	C76.736496,97.844521 74.444458,96.859985 72.196953,95.504227 
	C74.222313,95.112709 76.203148,95.092407 78.609589,95.153946 
z"/>
<path fill="#96C9A7" opacity="1.000000" stroke="none" 
	d="
M92.001358,85.002747 
	C92.000977,84.557693 92.000587,84.112633 92.000099,83.333786 
	C92.169235,82.997810 92.338470,82.995613 93.090012,82.992828 
	C94.110535,82.991035 94.548759,82.989838 94.986977,82.988632 
	C95.583893,83.546570 96.178513,84.583290 96.778084,84.586159 
	C101.283829,84.607712 105.790550,84.425545 110.641876,84.156601 
	C111.481133,89.403687 111.975471,94.801270 112.469810,100.198845 
	C112.108002,100.233215 111.746193,100.267578 111.384384,100.301949 
	C108.999649,97.697449 106.614922,95.092957 103.728638,92.749260 
	C102.818710,93.005325 102.410347,93.000595 101.854309,92.669708 
	C98.471550,89.896622 95.236458,87.449684 92.001358,85.002747 
z"/>
<path fill="#87C199" opacity="1.000000" stroke="none" 
	d="
M102.001984,92.995865 
	C102.410347,93.000595 102.818710,93.005325 103.532440,93.018860 
	C105.374748,96.767136 106.911690,100.506607 108.448631,104.246086 
	C107.992691,104.506485 107.536751,104.766876 107.080811,105.027275 
	C101.007919,102.365799 94.390862,100.617378 90.556671,94.253189 
	C94.528931,93.606148 98.265457,93.301003 102.001984,92.995865 
z"/>
<path fill="#8DC79F" opacity="1.000000" stroke="none" 
	d="
M101.854309,92.669708 
	C98.265457,93.301003 94.528931,93.606148 90.415268,93.950089 
	C89.695190,93.905045 89.352249,93.821213 88.800102,93.572998 
	C88.041191,91.872597 87.491493,90.336578 86.878632,88.442970 
	C88.439995,87.260086 90.064537,86.434776 91.845215,85.306107 
	C95.236458,87.449684 98.471550,89.896622 101.854309,92.669708 
z"/>
<path fill="#A7D2B2" opacity="1.000000" stroke="none" 
	d="
M94.951668,82.692146 
	C94.548759,82.989838 94.110535,82.991035 93.343849,82.989082 
	C93.245224,82.472275 93.475067,81.958611 93.704903,81.444954 
	C94.108719,81.761856 94.512543,82.078758 94.951668,82.692146 
z"/>
<path fill="#84C0D6" opacity="1.000000" stroke="none" 
	d="
M85.944382,102.269043 
	C86.114464,102.218391 86.426430,102.393799 86.856613,102.815598 
	C86.678642,102.873024 86.382454,102.684059 85.944382,102.269043 
z"/>
</svg>